<svg xmlns="http://www.w3.org/2000/svg" viewBox="0 0 512 512" width="30" height="30">
  <defs>
    <linearGradient id="grad3" x1="0%" y1="0%" x2="100%" y2="0%">
      <stop offset="0%" stop-color="#F8E889"/>
      <stop offset="100%" stop-color="#E4B764"/>
    </linearGradient>
  </defs>
  <g fill="url(#grad3)">
    <path d="M404.5,21.2V0h-297C48.9,0,1.4,47.5,1.4,106.1v169.7c0,58.6,47.5,106.1,106.1,106.1h246.9L510.6,512V106.1
      C510.6,47.5,463.1,0,404.5,0V21.2v21.2c35.1,0.1,63.6,28.5,63.6,63.6v315.3l-98.4-82H107.5c-35.1-0.1-63.6-28.5-63.6-63.6l0-169.7
      c0.1-35.1,28.5-63.6,63.6-63.6h297V21.2z M404.5,127.3H128.7v42.4h275.8V127.3z M404.5,212.1H213.6v42.4h190.9V212.1z"/>
  </g>
</svg>
