<svg xmlns="http://www.w3.org/2000/svg" viewBox="0 0 512 512" width="30" height="30">
  <defs>
    <linearGradient id="grad6" x1="0%" y1="0%" x2="100%" y2="0%">
      <stop offset="0%" stop-color="#F8E889"/>
      <stop offset="100%" stop-color="#E4B764"/>
    </linearGradient>
  </defs>
  <g fill="url(#grad6)">
    <path d="M256,488.7V512c141.4,0,256-114.6,256-256C512,114.6,397.4,0,256,0C114.6,0,0,114.6,0,256c0,141.4,114.6,256,256,256V488.7
      v-23.3c-57.9,0-110.1-23.4-148.1-61.3C70,366.1,46.6,313.9,46.5,256c0-57.9,23.4-110.1,61.3-148.1c38-37.9,90.2-61.3,148.1-61.3
      c57.9,0,110.1,23.4,148.1,61.3c37.9,38,61.3,90.2,61.3,148.1c0,57.9-23.4,110.1-61.3,148.1c-38,37.9-90.2,61.3-148.1,61.3V488.7z
      M197.8,337.5l11.7,20.1L383.6,256L174.5,134V378l35-20.4L197.8,337.5h23.3V215.1l70.2,40.9l-105.2,61.4L197.8,337.5h23.3H197.8z
      M221.1,290.9l14,18.6l71.4-53.5l-108.6-81.5v162.9l37.2-27.9L221.1,290.9h23.3v-23.3l9.3,7l14-18.6l-14-18.6l-46.5,34.9
      L221.1,290.9h23.3H221.1z"/>
  </g>
</svg>
