<svg xmlns="http://www.w3.org/2000/svg" viewBox="0 0 512 512" width="30" height="30">
  <defs>
    <linearGradient id="grad6" x1="0%" y1="0%" x2="100%" y2="0%">
      <stop offset="0%" stop-color="#F8E889"/>
      <stop offset="100%" stop-color="#E4B764"/>
    </linearGradient>
  </defs>
  <g fill="url(#grad6)">
    <path d="M0,139.6v325.8c0,6.1,2.5,12.1,6.8,16.5c4.3,4.3,10.3,6.8,16.5,6.8h465.5c6.1,0,12.1-2.5,16.5-6.8
      c4.3-4.3,6.8-10.3,6.8-16.5V162.9c0-12.9-10.4-23.3-23.3-23.3c-12.9,0-23.3,10.4-23.3,23.3l0,279.3H46.5l0-302.5
      c0-12.9-10.4-23.3-23.3-23.3C10.4,116.4,0,126.8,0,139.6L0,139.6z M216.3,30.1l-93.1,93.1c-9.1,9.1-9.1,23.8,0,32.9
      c9.1,9.1,23.8,9.1,32.9,0L249.2,63c9.1-9.1,9.1-23.8,0-32.9C240.1,21,225.4,21,216.3,30.1z M23.3,46.5H0v93.1
      c0,6.1,2.5,12.1,6.8,16.5c4.3,4.3,10.3,6.8,16.5,6.8h349.1c6.1,0,12.1-2.5,16.5-6.8L481.9,63c6.7-6.7,8.6-16.7,5-25.4
      c-3.6-8.7-12.1-14.4-21.5-14.4H23.3c-6.1,0-12.1,2.5-16.5,6.8C2.5,34.4,0,40.4,0,46.5H23.3v23.3h386l-46.5,46.5H46.5l0-69.8H23.3
      v23.3V46.5z M332.6,30.1l-93.1,93.1c-9.1,9.1-9.1,23.8,0,32.9c9.1,9.1,23.8,9.1,32.9,0L365.5,63c9.1-9.1,9.1-23.8,0-32.9
      C356.5,21,341.7,21,332.6,30.1z"/>
  </g>
</svg>
