<svg xmlns="http://www.w3.org/2000/svg" viewBox="0 0 512 512" width="30" height="30">
  <defs>
    <linearGradient id="grad6" x1="0%" y1="0%" x2="100%" y2="0%">
      <stop offset="0%" stop-color="#F8E889"/>
      <stop offset="100%" stop-color="#E4B764"/>
    </linearGradient>
  </defs>
  <g fill="url(#grad6)">
    <path d="M388,136.9l-0.2,0.2c-2.4,3.4-29.2,39.2-73.3,73.5c-44.2,34.4-104.9,66.7-175.8,66.7c-24.7,0.1-57.5,5.8-86.5,24.9
      c-14.4,9.6-27.7,22.8-37.2,40.2c-9.5,17.3-15,38.5-15,62.9V512h277.3V405.3c0-4.6,0.7-6.8,1.2-8.2l2.6-3.7
      c2.5-2.7,8.6-6.8,17.6-12.3c13.5-8.3,32.7-20.2,54.2-41.1c21.6-20.8,45.6-50.5,70.9-94.9l8.1-14.1l-43.5-43.5l-30.2,30.2l32,32
      l15.1-15.1l-18.5-10.6c-20.6,36.1-39.6,60.6-56.2,78c-25.2,26.2-44.5,36.5-61.3,47.2c-8.4,5.4-16.9,11.1-24,20.7
      c-7.2,9.6-10.8,22.3-10.6,35.4v64h-192v-64c0-18.2,3.9-31.7,9.7-42.4c8.7-15.9,22.6-26.4,38.8-33.4c16.1-6.9,34.1-9.6,47.5-9.5
      c86.9-0.1,157.8-40.3,206.7-79.3c49-39.2,76.6-77.9,77.4-78.9L388,136.9L388,136.9z M85.3,106.7V64h384l0,256l-42.7,0v42.7l85.3,0
      V21.3H42.7v85.3H85.3L85.3,106.7z M234.7,21.3v21.3h64H256V21.3H234.7v21.3V21.3h-21.3v64h128V0h-128v21.3H234.7z M138.7,298.7V320
      c53,0,96-43,96-96c0-53-43-96-96-96c-53,0-96,43-96,96c0,53,43,96,96,96V298.7v-21.3c-29.5-0.1-53.3-23.9-53.3-53.3
      c0.1-29.5,23.9-53.3,53.3-53.3c29.5,0.1,53.3,23.9,53.3,53.3c-0.1,29.4-23.9,53.3-53.3,53.3V298.7z"/>
  </g>
</svg>
